<svg version="1.1" xmlns="http://www.w3.org/2000/svg">
	<symbol id="book" viewBox="0 0 100 100">
		<path d="M93.3,11.9c-9.3,0.5-27.9,2.5-39.3,9.5c-0.8,0.5-1.2,1.3-1.2,2.2v61.9c0,2,2.1,3.2,4,2.3c11.8-5.9,28.8-7.5,37.2-8
			c2.9-0.2,5.1-2.5,5.1-5.2V17.1C99,14.1,96.4,11.7,93.3,11.9z M46,21.3c-11.4-7-30-8.9-39.3-9.5C3.6,11.7,1,14.1,1,17.1v57.5
			c0,2.8,2.2,5.1,5.1,5.2c8.4,0.4,25.5,2.1,37.2,8c1.8,0.9,4-0.3,4-2.3v-62C47.3,22.7,46.8,21.8,46,21.3z"/>
	</symbol>
	</symbol id="chevronr" viewBox="0 0 100 100">
		<path d="M78.2,53.8L34.5,97.5c-2.1,2.1-5.5,2.1-7.6,0l-5.1-5.1c-2.1-2.1-2.1-5.5,0-7.6L56.4,50L21.8,15.2c-2.1-2.1-2.1-5.5,0-7.6
			l5.1-5.1c2.1-2.1,5.5-2.1,7.6,0l43.7,43.7C80.3,48.3,80.3,51.7,78.2,53.8z"/>
	<symbol>
</svg>
